<?xml version="1.0" standalone="no"?><!-- Generator: Gravit.io --><svg xmlns="http://www.w3.org/2000/svg" xmlns:xlink="http://www.w3.org/1999/xlink" style="isolation:isolate" viewBox="696.962 171.197 634.056 662.792" width="634.056" height="662.792"><defs><clipPath id="_clipPath_BMFoLJ3uqsOQKmxKCUJoJLlebQgUQM8k"><rect x="696.962" y="171.197" width="634.056" height="662.792"/></clipPath></defs><g clip-path="url(#_clipPath_BMFoLJ3uqsOQKmxKCUJoJLlebQgUQM8k)"><path d=" M 1009.235 824.775 C 999.557 813.471 994.836 806.521 990.375 797.013 C 986.711 789.204 984.763 781.444 983.447 769.404 C 982.028 756.429 982.562 747.687 986.425 720.628 C 988.194 708.235 988.576 694.924 987.342 688.724 C 986.491 684.452 981.714 668.913 980.835 667.557 C 980.124 666.461 979.496 667.152 974.095 674.958 C 969.011 682.307 962.246 689.108 951.128 698.05 C 945.758 702.369 939.996 707.007 938.323 708.357 C 912.183 729.449 900.555 746.154 896.316 768.707 C 895.975 770.517 895.552 778.801 895.374 787.113 C 895.038 802.833 894.821 805.544 893.969 804.618 C 893.269 803.857 888.414 788.562 886.978 782.595 C 883.958 770.043 883.363 761.154 884.872 751.145 C 887.064 736.608 894.62 716.449 902.925 702.977 C 904.125 701.031 905.107 699.308 905.107 699.149 C 905.107 698.99 906.23 696.981 907.602 694.685 C 916.536 679.736 919.91 671.399 921.795 659.627 C 922.7 653.972 923.088 640.562 922.347 640.562 C 922.141 640.562 920.093 641.858 917.796 643.443 C 907.749 650.374 901 653.168 879.451 659.314 C 855.835 666.05 847.086 669.18 837.294 674.39 C 821.18 682.967 810.544 694.149 803.819 709.584 C 802.643 712.283 800.939 716.148 800.034 718.173 C 799.128 720.198 797.26 724.399 795.882 727.509 C 794.505 730.619 793.153 733.018 792.878 732.841 C 792.074 732.322 792.303 726.255 793.536 715.412 C 795.077 701.855 796.904 694.559 800.831 686.269 C 808.39 670.315 820.228 657.107 842.578 639.689 C 862.117 624.461 868.016 617.998 874.541 604.665 C 877.128 599.379 879.063 594.123 878.601 593.64 C 878.31 593.336 874.815 593.87 868.513 595.183 C 863.692 596.187 849.149 595.866 839.643 594.545 C 813.179 590.867 810.427 590.611 797.077 590.585 C 786.461 590.565 782.854 590.781 778.712 591.685 C 768.947 593.816 761.377 596.837 754.355 601.406 C 749.781 604.383 748.942 605.123 736.126 617.504 C 730.858 622.593 726.3 626.848 725.998 626.961 C 724.183 627.636 726.137 622.825 733.043 609.614 C 739.308 597.632 747.806 587.441 756.859 581.058 C 768.638 572.753 784.461 565.979 802.735 561.421 C 812.879 558.89 825.083 555.374 827.607 554.255 C 834.059 551.393 838.195 548.914 843.141 544.946 C 848.282 540.821 855.905 533.07 855.368 532.513 C 855.114 532.25 852.833 531.589 850.298 531.043 C 839.982 528.821 829.582 524.26 816.257 516.115 C 813.406 514.373 810.99 512.947 810.887 512.947 C 810.784 512.947 808.889 511.794 806.676 510.384 C 799.343 505.713 781.033 496.511 774.178 494.051 C 763.968 490.388 758.229 489.326 748.638 489.326 C 737.619 489.326 734 490.151 718.988 496.091 C 705.463 501.444 702.341 502.565 701.461 502.387 C 700.133 502.118 711.975 491.245 720.521 484.888 C 730.856 477.2 740.786 473.179 754.283 471.217 C 768.884 469.095 779.816 469.631 804.416 473.678 C 814.611 475.355 827.971 475.923 833.894 474.932 C 838.454 474.169 851.425 470.34 852.553 469.424 C 852.879 469.159 853.873 468.76 854.761 468.539 C 855.649 468.317 856.376 467.753 856.376 467.285 C 856.376 466.817 853.8 464.51 850.651 462.158 C 842.673 456.199 835.465 448.506 826.96 436.871 C 814.706 420.107 806.929 410.512 799.344 402.799 C 790.947 394.26 786.923 391.113 777.948 386.067 C 772.6 383.06 763.39 380.128 756.428 379.216 C 753.775 378.868 746.578 378.551 740.433 378.511 C 728.996 378.437 725.74 378.112 725.74 377.044 C 725.74 376.71 729.431 375.153 733.942 373.585 C 753.103 366.923 765.538 365.433 779.116 368.172 C 784.69 369.296 797.658 373.508 802.017 375.61 C 810.8 379.846 820.475 385.198 825.415 388.554 C 827.278 389.819 828.902 390.855 829.024 390.855 C 829.146 390.855 830.963 391.945 833.062 393.277 C 838.302 396.604 847.773 401.661 851.469 403.106 C 856.483 405.067 866.154 406.827 874.134 407.231 C 882.876 407.673 882.812 407.736 879.234 402.205 C 875.654 396.671 870.858 386.363 868.814 379.812 C 867.813 376.606 865.509 368.185 863.693 361.099 C 860.226 347.569 855.242 330.899 853.42 326.742 C 852.829 325.392 851.653 322.631 850.808 320.606 C 844.57 305.665 832.189 291.448 819.664 284.84 C 817.734 283.822 813.381 281.699 809.991 280.123 C 803.726 277.21 795.709 273.353 794.174 272.512 C 790.725 270.624 797.217 270.498 810.578 272.191 C 827.041 274.278 835.375 277.142 846.145 284.414 C 858.164 292.53 869.083 304.059 881.579 321.829 C 895.059 341.001 899.337 345.84 908.213 351.966 C 912.639 355.02 924.749 361.406 926.114 361.406 C 927.063 361.406 927.089 361.801 925.372 350.109 C 924.165 341.885 924.253 333.457 925.661 322.447 C 929.237 294.477 929.854 286.73 929.594 273.057 C 929.263 255.639 927.846 248.829 921.967 236.404 C 918.375 228.814 915.283 224.65 904.307 212.625 C 896.122 203.658 893.818 200.661 895.11 200.661 C 895.448 200.661 899.75 202.766 904.671 205.339 C 920.401 213.565 929.214 220.491 936.265 230.172 C 940.447 235.912 941.87 238.395 945.899 246.983 C 950.849 257.537 953.622 265.933 957.951 283.485 C 964.01 308.047 965.456 312.061 971.64 321.495 C 974.611 326.026 984.049 336.865 985.024 336.865 C 985.295 336.865 985.677 336.106 985.872 335.178 C 989.069 320.036 992.053 311.782 998.325 300.735 C 999.783 298.166 1001.558 294.961 1002.269 293.611 C 1002.981 292.261 1004.56 289.362 1005.778 287.169 C 1021.009 259.755 1026.644 243.037 1026.633 225.288 C 1026.63 221.361 1026.356 216.39 1026.022 214.243 C 1025.429 210.423 1022.576 200.328 1021.057 196.673 C 1019.394 192.675 1013.721 176.471 1013.721 175.722 C 1013.721 174.21 1024.25 186.39 1029.976 194.526 C 1040.749 209.832 1044.838 224.806 1044.838 248.946 C 1044.838 258.226 1044.539 262.662 1043.355 270.954 C 1042.539 276.667 1041.606 283.411 1041.281 285.942 C 1040.955 288.473 1040.442 292.476 1040.14 294.838 C 1039.267 301.659 1039.463 309.337 1040.678 315.886 C 1041.985 322.932 1045.739 335.15 1047.161 336.985 C 1048.121 338.223 1048.232 338.119 1052.296 332.19 C 1057.671 324.349 1065.222 316.336 1073.313 309.89 C 1091.105 295.715 1099.361 288.59 1106.682 281.093 C 1119.347 268.125 1125.13 258.978 1129.608 244.835 C 1131.521 238.792 1132.246 232.07 1132.556 217.482 C 1132.729 209.355 1133.116 202.038 1133.415 201.223 L 1133.959 199.74 L 1134.625 201.518 C 1137.599 209.456 1141.143 222.252 1142.629 230.417 C 1146.492 251.64 1140.01 276.451 1122.995 305.575 C 1110.931 326.222 1108.21 332.623 1106.302 344.841 C 1105.03 352.98 1104.432 363.599 1105.216 364.105 C 1105.558 364.326 1107.697 363.261 1109.97 361.739 C 1115.477 358.05 1125.913 352.619 1130.595 351.005 C 1132.673 350.289 1138.865 348.446 1144.355 346.91 C 1161.872 342.01 1175.433 337.793 1176.647 336.869 C 1176.97 336.623 1177.968 336.238 1178.865 336.014 C 1179.761 335.79 1181.875 334.946 1183.561 334.138 C 1185.248 333.33 1187.817 332.106 1189.27 331.418 C 1194.986 328.711 1201.608 324.157 1207.607 318.808 C 1215.652 311.636 1220.997 303.234 1227.736 287.169 C 1231.482 278.241 1234.154 272.833 1234.95 272.572 C 1235.56 272.371 1235.641 273.603 1235.349 278.671 C 1234.618 291.368 1232.803 302.92 1230.261 311.056 C 1225.109 327.541 1210.707 345.554 1189.462 362.082 C 1175.679 372.805 1167.695 379.453 1165.316 382.187 C 1159.951 388.355 1154.98 396.325 1151.682 404.047 C 1150.673 406.409 1149.581 408.858 1149.256 409.488 C 1148.924 410.129 1148.886 410.867 1149.169 411.163 C 1149.452 411.458 1152.77 411.133 1156.703 410.424 C 1162.675 409.346 1165.319 409.204 1174.299 409.476 C 1180.112 409.652 1187.51 410.223 1190.739 410.744 C 1197.167 411.781 1208.689 413.203 1219.214 414.257 C 1237.617 416.101 1254.698 413.537 1267.898 406.95 C 1275.456 403.178 1280.721 398.767 1295.308 383.984 C 1300.587 378.634 1303.172 376.84 1303.172 378.526 C 1303.172 379.468 1297.924 389.803 1291.493 401.525 C 1284.82 413.688 1272.796 424.519 1257.964 431.725 C 1252.108 434.571 1251.242 434.963 1247.983 436.247 C 1246.207 436.946 1244.226 437.775 1243.58 438.089 C 1241.637 439.033 1233.117 441.53 1220.457 444.867 C 1200.968 450.003 1197.204 451.498 1188.119 457.709 C 1182.785 461.355 1171.893 471.755 1172.66 472.469 C 1172.916 472.707 1175.604 473.505 1178.633 474.242 C 1183.666 475.466 1189.531 477.296 1192.5 478.569 C 1195.353 479.792 1203.946 484.248 1206.999 486.087 C 1208.838 487.195 1212.141 489.184 1214.338 490.508 C 1226.706 497.959 1230.581 500.195 1236.24 503.145 C 1239.308 504.744 1243.535 506.811 1245.634 507.739 C 1247.733 508.666 1250.345 509.834 1251.437 510.334 C 1256.019 512.432 1269.294 515.408 1275.78 515.792 C 1284.627 516.316 1295.166 514.772 1301.065 512.088 C 1303.851 510.821 1312.459 507.427 1312.888 507.427 C 1313.098 507.427 1314.102 507.04 1315.119 506.567 C 1319.865 504.362 1325.415 502.416 1326.396 502.613 C 1327.205 502.776 1325.92 504.245 1321.344 508.393 C 1302.244 525.704 1291.566 531.276 1272.054 534.116 C 1259.51 535.942 1247.163 535.234 1223.323 531.32 C 1218.964 530.604 1211.169 529.88 1206.003 529.711 C 1195.658 529.371 1191.373 530.051 1180.683 533.73 C 1173.256 536.287 1171.055 537.363 1171.422 538.257 C 1171.596 538.679 1173.371 540.125 1175.367 541.472 C 1184.287 547.489 1191.807 555.312 1201.028 568.167 C 1214.503 586.952 1225.813 600.579 1233.42 607.195 C 1242.849 615.396 1249.788 619.647 1258.689 622.675 C 1267.353 625.623 1269.707 625.943 1285.961 626.376 C 1294.417 626.601 1301.511 626.968 1301.725 627.192 C 1302.646 628.155 1300.804 629.06 1291.478 632.229 C 1279.291 636.371 1273.278 637.616 1263.833 637.958 C 1255.836 638.247 1250.655 637.612 1242.207 635.31 C 1237.429 634.009 1225.041 629.273 1222.238 627.677 C 1221.704 627.373 1219.418 626.179 1217.158 625.024 C 1211.942 622.357 1209.509 620.944 1201.728 616.063 C 1198.266 613.891 1193.584 610.958 1191.324 609.544 C 1178.582 601.576 1169.068 598.562 1154.322 597.824 C 1147.738 597.494 1146.41 597.572 1146.411 598.289 C 1146.411 598.763 1147.599 601.038 1149.049 603.344 C 1151.938 607.936 1156.778 618.077 1158.615 623.386 C 1159.257 625.242 1161.024 631.592 1162.541 637.497 C 1172.842 677.594 1177.858 690.1 1189.307 704.233 C 1196.566 713.194 1203.26 717.896 1220.387 726.064 C 1232.033 731.619 1235.065 733.183 1235.065 733.638 C 1235.065 734.68 1219.988 733.498 1209.025 731.596 C 1186.071 727.614 1168.165 713.644 1145.586 682.1 C 1130.877 661.552 1126.866 657.336 1115.293 650.26 C 1109.954 646.996 1101.911 643.301 1101.372 643.865 C 1101.156 644.09 1101.418 647.236 1101.954 650.856 C 1103.952 664.342 1103.865 671.597 1101.496 689.034 C 1100.262 698.114 1098.446 716.33 1097.977 724.312 C 1097.071 739.756 1100.015 756.446 1105.768 768.487 C 1109.078 775.413 1111.628 778.85 1122.842 791.494 C 1132.085 801.917 1134.443 804.992 1133.192 804.992 C 1132.835 804.992 1120.459 798.422 1116.073 795.905 C 1096.358 784.589 1085.72 770.587 1075.665 742.718 C 1074.813 740.356 1072.411 731.439 1070.327 722.902 C 1064.081 697.307 1061.787 691.058 1055.356 682.127 C 1051.33 676.535 1043.654 668.075 1042.859 668.352 C 1042.506 668.476 1041.997 669.797 1041.728 671.289 C 1039.83 681.84 1035.255 694.154 1029.096 705.292 C 1028.163 706.98 1026.403 710.155 1025.185 712.348 C 1022.707 716.809 1021.694 718.689 1017.245 727.073 C 1012.497 736.019 1011.581 737.849 1010.905 739.741 C 1010.56 740.704 1009.439 743.562 1008.414 746.093 C 1005.656 752.895 1003.269 761.02 1002.195 767.26 C 1000.928 774.616 1000.958 786.065 1002.26 792.721 C 1003.105 797.043 1007.194 809.862 1009.696 816.036 C 1010.473 817.953 1014.309 828.983 1014.309 829.3 C 1014.309 830.269 1012.724 828.858 1009.232 824.778 L 1009.235 824.775 Z " fill="rgb(23,0,100)" vector-effect="non-scaling-stroke" stroke-width="2.198" stroke="rgb(4,0,20)" stroke-linejoin="miter" stroke-linecap="butt" stroke-miterlimit="4"/><g transform="matrix(1,0,0,1,943.011,298.321)"><text transform="matrix(1,0,0,1,5.195,320.654)" style="font-family:&quot;Open Sans&quot;;font-weight:400;font-size:300px;font-style:normal;fill:#f70002;stroke:none;">λ</text></g><g transform="matrix(1,0,0,1,929.991,305.228)"><text transform="matrix(1,0,0,1,5.195,320.654)" style="font-family:&quot;Open Sans&quot;;font-weight:400;font-size:300px;font-style:normal;fill:#f7f7fe;stroke:none;">λ</text></g></g></svg>